<?xml version="1.0" encoding="UTF-8" standalone="no"?>
<!-- Created with Inkscape (http://www.inkscape.org/) -->

<svg
   xmlns:dc="http://purl.org/dc/elements/1.1/"
   xmlns:cc="http://creativecommons.org/ns#"
   xmlns:rdf="http://www.w3.org/1999/02/22-rdf-syntax-ns#"
   xmlns:svg="http://www.w3.org/2000/svg"
   xmlns="http://www.w3.org/2000/svg"
   xmlns:sodipodi="http://sodipodi.sourceforge.net/DTD/sodipodi-0.dtd"
   xmlns:inkscape="http://www.inkscape.org/namespaces/inkscape"
   width="228.12137mm"
   height="53.964252mm"
   viewBox="0 0 808.30406 191.21192"
   id="svg34969"
   version="1.1"
   inkscape:version="0.91 r13725"
   sodipodi:docname="binary-title.svg">
  <defs
     id="defs34971" />
  <sodipodi:namedview
     id="base"
     pagecolor="#ffffff"
     bordercolor="#666666"
     borderopacity="1.0"
     inkscape:pageopacity="0.0"
     inkscape:pageshadow="2"
     inkscape:zoom="0.35"
     inkscape:cx="774.86635"
     inkscape:cy="-755.82261"
     inkscape:document-units="px"
     inkscape:current-layer="layer1"
     showgrid="false"
     fit-margin-top="0"
     fit-margin-left="0"
     fit-margin-right="0"
     fit-margin-bottom="0"
     inkscape:window-width="1544"
     inkscape:window-height="871"
     inkscape:window-x="52"
     inkscape:window-y="0"
     inkscape:window-maximized="1" />
  <metadata
     id="metadata34974">
    <rdf:RDF>
      <cc:Work
         rdf:about="">
        <dc:format>image/svg+xml</dc:format>
        <dc:type
           rdf:resource="http://purl.org/dc/dcmitype/StillImage" />
        <dc:title></dc:title>
      </cc:Work>
    </rdf:RDF>
  </metadata>
  <g
     inkscape:label="Layer 1"
     inkscape:groupmode="layer"
     id="layer1"
     transform="translate(1149.8663,414.67233)">
    <g
       transform="translate(-1341.8931,-506.6572)"
       style="font-style:normal;font-variant:normal;font-weight:normal;font-stretch:normal;font-size:144px;line-height:100%;font-family:Hiruko_Pro;-inkscape-font-specification:'Hiruko_Pro, Normal';text-align:start;letter-spacing:0px;word-spacing:0px;writing-mode:lr-tb;text-anchor:start;display:inline;fill:#d12833;fill-opacity:1;stroke:none;stroke-width:1px;stroke-linecap:butt;stroke-linejoin:miter;stroke-opacity:1"
       id="text6070"
       inkscape:export-xdpi="50.099998"
       inkscape:export-ydpi="50.099998">
      <path
         inkscape:connector-curvature="0"
         d="m 224.10913,246.50482 q -2.35014,0.68525 -2.99508,-1.52665 l -28.9417,-99.25867 q -0.64494,-2.21189 1.56695,-2.85683 l 15.06852,-4.39366 q 11.33595,-3.30532 21.69197,2.37489 10.49426,5.63989 13.83989,17.11408 2.17667,7.46514 0.29831,14.91266 -1.78043,7.26898 -6.95335,12.6772 9.68838,-0.72497 17.90744,4.82833 8.17876,5.41507 10.96007,14.95385 3.2247,11.05946 -2.39787,21.09869 -5.48433,9.99891 -16.40555,13.18331 l -23.6396,6.8928 z m -12.15535,-49.40451 12.93912,44.37609 21.56595,-6.28817 q 9.2623,-2.70069 13.76728,-10.91408 4.60292,-8.39195 1.90224,-17.65425 -2.70069,-9.2623 -11.09264,-13.86522 -8.2537,-4.64323 -17.516,-1.94254 l -21.56595,6.28817 z m -1.85608,-54.20751 -12.85663,3.74872 13.42283,46.03501 12.85662,-3.74872 q 9.67703,-2.82162 14.37789,-11.39211 4.79879,-8.74905 2.01748,-18.28784 -2.82161,-9.67703 -11.53035,-14.33758 -8.61081,-4.8391 -18.28784,-2.01748 z"
         style="font-style:normal;font-variant:normal;font-weight:normal;font-stretch:normal;font-size:144px;line-height:100%;font-family:Hiruko_Pro;-inkscape-font-specification:'Hiruko_Pro, Normal';text-align:start;writing-mode:lr-tb;text-anchor:start"
         id="path34921" />
      <path
         inkscape:connector-curvature="0"
         d="m 264.07415,148.3514 q -0.30569,-1.25943 0.33013,-2.30285 0.7418,-1.21732 2.14117,-1.55698 1.25943,-0.30569 2.33681,0.47007 1.18336,0.60186 1.48905,1.86129 0.33966,1.39937 -0.40214,2.61669 -0.63582,1.04341 -1.89525,1.34911 -1.39937,0.33966 -2.58272,-0.2622 -1.07739,-0.77576 -1.41705,-2.17513 z m 24.85215,78.57924 q 0.54345,2.23899 -1.69554,2.78244 -2.23898,0.54346 -2.78244,-1.69553 l -16.2018,-66.74985 q -0.54346,-2.23899 1.69553,-2.78245 2.23899,-0.54345 2.78245,1.69553 l 16.2018,66.74986 z"
         style="font-style:normal;font-variant:normal;font-weight:normal;font-stretch:normal;font-size:144px;line-height:100%;font-family:Hiruko_Pro;-inkscape-font-specification:'Hiruko_Pro, Normal';text-align:start;writing-mode:lr-tb;text-anchor:start"
         id="path34923" />
      <path
         inkscape:connector-curvature="0"
         d="m 305.69739,222.80581 q 0.44807,2.26001 -1.81194,2.70808 -2.26002,0.44806 -2.70808,-1.81195 l -13.32996,-67.23535 q -0.44806,-2.26001 1.81195,-2.70808 2.26001,-0.44806 2.70808,1.81195 l 1.87627,9.4638 q 2.55236,-6.37814 7.84079,-10.80308 5.40169,-4.59419 12.46422,-5.9944 11.30006,-2.24033 20.77833,4.10149 9.61953,6.3138 11.83185,17.47261 l 8.54125,43.08147 q 0.44807,2.26002 -1.81194,2.70808 -2.26001,0.44807 -2.70808,-1.81194 l -8.59726,-43.36398 q -1.84827,-9.32255 -9.88849,-14.33463 -7.92698,-5.18134 -17.24952,-3.33307 -9.32255,1.84827 -14.8424,9.54875 -5.3786,7.67247 -3.55834,16.85377 l 8.65327,43.64648 z"
         style="font-style:normal;font-variant:normal;font-weight:normal;font-stretch:normal;font-size:144px;line-height:100%;font-family:Hiruko_Pro;-inkscape-font-specification:'Hiruko_Pro, Normal';text-align:start;writing-mode:lr-tb;text-anchor:start"
         id="path34925" />
      <path
         inkscape:connector-curvature="0"
         d="m 432.9038,133.32388 8.49876,68.16019 q 0.28507,2.2863 -2.00122,2.57137 -2.2863,0.28508 -2.57137,-2.00122 l -2.01334,-16.14696 q -3.77153,9.32228 -11.70372,15.53547 -7.7893,6.19538 -18.07764,7.47821 -15.43249,1.92425 -27.62868,-7.43866 -12.07111,-9.52363 -13.99536,-24.95612 -1.90643,-15.28961 7.4743,-27.3429 9.52362,-12.07112 24.95612,-13.99536 10.14543,-1.26502 19.37828,2.95302 9.21502,4.07513 15.14243,12.04296 l -2.03115,-16.28986 q -0.28508,-2.28629 2.00122,-2.57137 2.28629,-0.28507 2.57137,2.00123 z m -64.77709,42.61431 q 1.69263,13.57488 12.15663,21.84774 10.58909,8.11215 24.16397,6.41952 13.43199,-1.6748 21.54414,-12.26389 8.25504,-10.6069 6.58023,-24.03888 -1.67481,-13.43199 -12.26389,-21.54414 -10.46401,-8.27286 -23.896,-6.59805 -13.43199,1.67481 -21.68703,12.28171 -8.27286,10.464 -6.59805,23.89599 z"
         style="font-style:normal;font-variant:normal;font-weight:normal;font-stretch:normal;font-size:144px;line-height:100%;font-family:Hiruko_Pro;-inkscape-font-specification:'Hiruko_Pro, Normal';text-align:start;writing-mode:lr-tb;text-anchor:start"
         id="path34927" />
      <path
         inkscape:connector-curvature="0"
         d="m 485.55006,133.06717 q -0.14369,0.01 -2.47127,-0.26866 -2.33713,-0.42189 -4.34869,-0.28815 -9.62675,0.64002 -15.95953,7.41103 -6.33278,6.77101 -5.71187,16.11039 l 2.95173,44.39799 q 0.15284,2.29893 -2.14608,2.45177 -2.29893,0.15284 -2.45177,-2.14609 l -4.547,-68.39301 q -0.15284,-2.29893 2.14609,-2.45177 2.29892,-0.15284 2.45176,2.14608 l 0.64002,9.62675 q 7.23427,-12.74798 22.32097,-13.75099 4.88521,-0.32479 7.69161,0.64318 1.7815,0.74746 1.87703,2.18429 0.14329,2.15524 -2.443,2.32719 z"
         style="font-style:normal;font-variant:normal;font-weight:normal;font-stretch:normal;font-size:144px;line-height:100%;font-family:Hiruko_Pro;-inkscape-font-specification:'Hiruko_Pro, Normal';text-align:start;writing-mode:lr-tb;text-anchor:start"
         id="path34929" />
      <path
         inkscape:connector-curvature="0"
         d="m 516.76922,226.65384 9.35536,-27.84984 -26.21476,-68.87459 q -0.003,-0.14397 -0.003,-0.14397 -0.003,-0.14397 -0.14999,-0.28493 -0.006,-0.28793 -0.0151,-0.71984 -0.0422,-2.01556 2.11734,-2.06075 2.01556,-0.0422 2.62458,1.52942 l 24.0817,63.30201 21.55631,-64.25708 q 0.6867,-1.59871 2.55829,-1.63788 2.15952,-0.0452 2.21074,2.40227 l -0.1289,0.72286 -33.35547,99.21559 q -0.6867,1.59872 -2.55829,1.63789 -2.15953,0.0452 -2.20472,-2.11434 l 0.12589,-0.86682 z"
         style="font-style:normal;font-variant:normal;font-weight:normal;font-stretch:normal;font-size:144px;line-height:100%;font-family:Hiruko_Pro;-inkscape-font-specification:'Hiruko_Pro, Normal';text-align:start;writing-mode:lr-tb;text-anchor:start"
         id="path34931" />
      <path
         inkscape:connector-curvature="0"
         d="m 656.29443,198.0374 q 2.2993,0.14717 2.15213,2.44646 -0.14716,2.2993 -2.44646,2.15213 l -44.97996,-2.87893 q -2.29929,-0.14717 -2.16133,-2.30276 l 6.61327,-103.324572 q 0.14717,-2.299295 2.73388,-2.133733 l 44.69255,2.860537 q 2.29929,0.147166 2.15213,2.446461 -0.14717,2.299296 -2.44647,2.15213 l -42.68066,-2.731768 -2.75936,43.111785 42.68066,2.73177 q 2.2993,0.14716 2.15213,2.44646 -0.14716,2.29929 -2.44646,2.15213 l -42.68067,-2.73177 -3.25604,50.8719 42.68066,2.73177 z"
         style="font-style:normal;font-variant:normal;font-weight:normal;font-stretch:normal;font-size:144px;line-height:100%;font-family:Hiruko_Pro;-inkscape-font-specification:'Hiruko_Pro, Normal';text-align:start;writing-mode:lr-tb;text-anchor:start"
         id="path34933" />
      <path
         inkscape:connector-curvature="0"
         d="m 676.00601,202.95491 q -0.22289,2.29319 -2.51608,2.0703 -2.2932,-0.22289 -2.0703,-2.51608 l 9.41716,-96.88742 q 0.22289,-2.29319 2.51608,-2.0703 2.2932,0.22289 2.0703,2.51608 l -9.41716,96.88742 z"
         style="font-style:normal;font-variant:normal;font-weight:normal;font-stretch:normal;font-size:144px;line-height:100%;font-family:Hiruko_Pro;-inkscape-font-specification:'Hiruko_Pro, Normal';text-align:start;writing-mode:lr-tb;text-anchor:start"
         id="path34935" />
      <path
         inkscape:connector-curvature="0"
         d="m 696.23113,234.5502 13.42703,-26.13142 -15.58689,-72.02759 q 0.0186,-0.14279 0.0186,-0.14279 0.0186,-0.14279 -0.10556,-0.3042 0.0372,-0.28558 0.0931,-0.71395 0.26064,-1.99909 2.40251,-1.71983 1.99908,0.26063 2.36547,1.9058 l 14.31385,66.19809 30.95106,-60.29659 q 0.91874,-1.47762 2.77503,-1.2356 2.14187,0.27925 1.82539,2.7067 l -0.23588,0.69534 -47.86055,93.08969 q -0.91874,1.47762 -2.77503,1.23561 -2.14187,-0.27925 -1.86262,-2.42113 l 0.25449,-0.83813 z"
         style="font-style:normal;font-variant:normal;font-weight:normal;font-stretch:normal;font-size:144px;line-height:100%;font-family:Hiruko_Pro;-inkscape-font-specification:'Hiruko_Pro, Normal';text-align:start;writing-mode:lr-tb;text-anchor:start"
         id="path34937" />
      <path
         inkscape:connector-curvature="0"
         d="m 746.78175,203.8607 q 0.33726,-1.84137 2.32027,-1.47817 1.2748,0.23349 2.77891,2.41212 5.32224,7.70898 16.08717,9.68065 7.36547,1.34903 12.1736,-1.72301 4.94978,-3.04609 5.93561,-8.42856 1.86789,-10.19835 -10.30514,-18.86931 l -9.29035,-6.82543 q -11.09176,-8.18013 -9.04227,-19.36999 0.5448,-2.97452 2.75145,-6.23024 2.3483,-3.22978 5.45462,-5.00316 6.43211,-3.94576 15.07238,-2.36324 8.35699,1.53063 13.8489,7.51395 2.90653,3.31386 2.71092,5.18117 -0.014,0.87581 -0.85195,1.45431 -0.69629,0.60445 -1.68779,0.42285 -0.56658,-0.10377 -1.19697,-0.65842 -0.4628,-0.67034 -1.556,-1.89534 -1.09319,-1.22499 -2.21233,-2.30834 -4.67007,-4.07605 -10.47747,-5.13971 -6.7989,-1.24526 -11.46538,1.85272 -4.64055,2.95634 -5.62638,8.3388 -1.4528,7.93205 6.78223,14.125 l 9.66339,7.18654 q 14.2956,10.67008 12.01263,23.13473 -1.27121,6.94055 -7.35622,11.38906 -6.05906,4.30688 -16.82399,2.33522 -12.18137,-2.2311 -17.96641,-10.61043 -1.96691,-2.84898 -1.73343,-4.12377 z"
         style="font-style:normal;font-variant:normal;font-weight:normal;font-stretch:normal;font-size:144px;line-height:100%;font-family:Hiruko_Pro;-inkscape-font-specification:'Hiruko_Pro, Normal';text-align:start;writing-mode:lr-tb;text-anchor:start"
         id="path34939" />
      <path
         inkscape:connector-curvature="0"
         d="m 815.36915,141.55195 q 0.27618,-1.26623 1.30445,-1.92627 1.19965,-0.77004 2.60657,-0.46318 1.26624,0.27618 1.89559,1.44514 0.80073,1.05896 0.52455,2.32519 -0.30686,1.40692 -1.50651,2.17697 -1.02827,0.66003 -2.2945,0.38386 -1.40693,-0.30686 -2.20766,-1.36582 -0.62935,-1.16896 -0.32249,-2.57589 z m -12.03476,81.53214 q -0.49098,2.25108 -2.74206,1.76011 -2.25108,-0.49098 -1.7601,-2.74206 l 14.63728,-67.11029 q 0.49097,-2.25108 2.74205,-1.76011 2.25108,0.49098 1.7601,2.74206 l -14.63727,67.11029 z"
         style="font-style:normal;font-variant:normal;font-weight:normal;font-stretch:normal;font-size:144px;line-height:100%;font-family:Hiruko_Pro;-inkscape-font-specification:'Hiruko_Pro, Normal';text-align:start;writing-mode:lr-tb;text-anchor:start"
         id="path34941" />
      <path
         inkscape:connector-curvature="0"
         d="m 870.66088,215.16996 11.40889,-43.00851 q 0.59075,-2.22697 2.81773,-1.63622 2.22698,0.59075 1.63623,2.81773 l -17.57486,66.25258 q -0.59075,2.22697 -2.81773,1.63622 -2.22698,-0.59075 -1.63622,-2.81773 l 2.47377,-9.32547 q -5.09572,4.60748 -11.96685,6.3603 -6.69502,1.65056 -13.65432,-0.19554 -11.13489,-2.95376 -17.00087,-12.85273 -5.72679,-9.86205 -2.80995,-20.85775 l 11.2612,-42.45176 q 0.59075,-2.22698 2.81772,-1.63623 2.22698,0.59075 1.63623,2.81773 l -11.33504,42.73013 q -2.43685,9.18628 2.40648,17.32418 5.01945,8.03562 14.20573,10.47247 9.18628,2.43685 17.38952,-2.09119 8.34242,-4.49112 10.74234,-13.53821 z"
         style="font-style:normal;font-variant:normal;font-weight:normal;font-stretch:normal;font-size:144px;line-height:100%;font-family:Hiruko_Pro;-inkscape-font-specification:'Hiruko_Pro, Normal';text-align:start;writing-mode:lr-tb;text-anchor:start"
         id="path34943" />
      <path
         inkscape:connector-curvature="0"
         d="m 934.67794,262.76458 q -0.85188,2.14073 -2.99261,1.28886 -2.14073,-0.85187 -1.28886,-2.99261 l 16.34528,-41.07528 q 3.51396,-8.83052 -0.51235,-17.40694 -3.83927,-8.65698 -12.66978,-12.17094 -8.83052,-3.51397 -17.6486,-0.0488 -8.68429,3.51844 -12.14502,12.21516 l -16.45175,41.34288 q -0.85187,2.14073 -2.9926,1.28886 -2.14074,-0.85187 -1.28887,-2.9926 l 25.34316,-63.68677 q 0.85188,-2.14073 2.99261,-1.28886 2.14073,0.85187 1.28886,2.99261 l -3.56721,8.96431 q 5.60836,-3.96754 12.45235,-4.80868 7.03102,-0.92169 13.72081,1.7404 7.76015,3.08804 12.4786,9.92511 4.7717,6.70328 5.08042,14.88522 5.84588,-5.73281 13.91858,-7.32486 8.12593,-1.72586 15.88609,1.36218 10.70365,4.25935 15.29522,14.9205 4.64483,10.52735 0.33221,21.3648 l -16.07906,40.40631 q -0.85187,2.14073 -2.9926,1.28886 -2.14074,-0.85187 -1.28886,-2.9926 l 16.07906,-40.40631 q 3.56721,-8.96431 -0.35262,-17.80832 -3.78602,-8.79077 -12.75034,-12.35798 -8.69672,-3.46073 -17.38101,0.0577 -8.68428,3.51843 -12.4126,12.10867 l -16.39851,41.20909 z"
         style="font-style:normal;font-variant:normal;font-weight:normal;font-stretch:normal;font-size:144px;line-height:100%;font-family:Hiruko_Pro;-inkscape-font-specification:'Hiruko_Pro, Normal';text-align:start;writing-mode:lr-tb;text-anchor:start"
         id="path34945" />
    </g>
  </g>
</svg>
